ِِ<svg width="24" height="25" viewBox="0 0 24 25" fill="none" xmlns="http://www.w3.org/2000/svg">
<path d="M4 8.5C4 7.52892 4.00212 6.90121 4.06431 6.4387C4.12262 6.00496 4.21677 5.86902 4.29289 5.79289C4.36902 5.71677 4.50496 5.62262 4.9387 5.56431C5.40121 5.50212 6.02892 5.5 7 5.5L17 5.5C17.9711 5.5 18.5988 5.50212 19.0613 5.56431C19.495 5.62262 19.631 5.71677 19.7071 5.79289C19.7832 5.86902 19.8774 6.00496 19.9357 6.4387C19.9979 6.90121 20 7.52892 20 8.5V16.5H4L4 8.5Z" stroke="#FFCB66" stroke-width="2"/>
<path d="M3.66667 16.5C2.74619 16.5 2 17.2462 2 18.1667C2 19.4553 3.04467 20.5 4.33333 20.5H19.6667C20.9553 20.5 22 19.4553 22 18.1667C22 17.2462 21.2538 16.5 20.3333 16.5H3.66667Z" stroke="#FFCB66" stroke-width="2"/>
</svg>
