<svg width="135" height="122" viewBox="0 0 135 122" fill="none" xmlns="http://www.w3.org/2000/svg">
<g clip-path="url(#clip0_1_1693)">
<path d="M35.1513 28.9617C32.5334 24.5587 30.8508 21.7069 29.8859 19.4422C28.981 17.3184 29.0414 16.4482 29.1813 15.8978C29.3212 15.3475 29.6838 14.5541 31.4932 13.1204C33.4226 11.5916 36.263 9.88971 40.6659 7.2718L86.0067 -19.6869C90.4097 -22.3049 93.2615 -23.9875 95.5262 -24.9524C97.65 -25.8573 98.5202 -25.7969 99.0706 -25.657C99.6209 -25.517 100.414 -25.1544 101.848 -23.345C103.377 -21.4156 105.079 -18.5753 107.697 -14.1723L129.264 22.1003L56.7183 65.2343L35.1513 28.9617Z" stroke="black" stroke-opacity="0.15" stroke-width="10.55"/>
<path d="M60.5986 75.2011C56.4251 77.6826 55.0534 83.0775 57.5349 87.251C61.009 93.0939 68.5619 95.0142 74.4048 91.5402L143.927 50.2034C149.77 46.7293 151.691 39.1764 148.217 33.3335C145.735 29.16 140.34 27.7884 136.167 30.2698L60.5986 75.2011Z" stroke="black" stroke-opacity="0.15" stroke-width="10.55"/>
</g>
<defs>
<clipPath id="clip0_1_1693">
<rect width="126.6" height="126.6" fill="white" transform="matrix(0.859541 -0.511066 -0.511066 -0.859541 65.5405 121.359)"/>
</clipPath>
</defs>
</svg>
