<svg width="24" height="24" viewBox="0 0 24 24" fill="none" xmlns="http://www.w3.org/2000/svg">
<path fill-rule="evenodd" clip-rule="evenodd" d="M11.3935 2.42744C11.7631 2.19085 12.2367 2.19085 12.6063 2.42744L21.9813 8.42744C22.5047 8.76237 22.6574 9.45811 22.3225 9.98144C21.9875 10.5048 21.2918 10.6575 20.7685 10.3226L19.8749 9.75067V18.75C19.8749 20.4069 18.5317 21.75 16.8749 21.75H7.12489C5.46804 21.75 4.12489 20.4069 4.12489 18.75L4.12489 9.75068L3.23133 10.3226C2.70801 10.6575 2.01226 10.5048 1.67734 9.98144C1.34241 9.45811 1.49514 8.76237 2.01846 8.42744L11.3935 2.42744ZM8.06239 10.5C8.06239 10.0858 8.39818 9.75 8.81239 9.75H11.0624C11.4766 9.75 11.8124 10.0858 11.8124 10.5V12.75C11.8124 13.1642 11.4766 13.5 11.0624 13.5H8.81239C8.39818 13.5 8.06239 13.1642 8.06239 12.75V10.5ZM8.81239 15.375C8.81239 14.9608 9.14818 14.625 9.56239 14.625H11.0624C11.4766 14.625 11.8124 14.9608 11.8124 15.375V16.875C11.8124 17.2892 11.4766 17.625 11.0624 17.625H9.56239C9.14818 17.625 8.81239 17.2892 8.81239 16.875V15.375ZM12.9374 11.25C12.9374 10.8358 13.2732 10.5 13.6874 10.5H15.1874C15.6016 10.5 15.9374 10.8358 15.9374 11.25V12.75C15.9374 13.1642 15.6016 13.5 15.1874 13.5H13.6874C13.2732 13.5 12.9374 13.1642 12.9374 12.75V11.25ZM12.9374 15.375C12.9374 14.9608 13.2732 14.625 13.6874 14.625H15.1874C15.6016 14.625 15.9374 14.9608 15.9374 15.375V16.875C15.9374 17.2892 15.6016 17.625 15.1874 17.625H13.6874C13.2732 17.625 12.9374 17.2892 12.9374 16.875V15.375Z" fill="#403BD7"/>
</svg>
