<svg width="105" height="101" viewBox="0 0 105 101" fill="none" xmlns="http://www.w3.org/2000/svg">
<g clip-path="url(#clip0_1_1732)">
<path fill-rule="evenodd" clip-rule="evenodd" d="M46.1984 0.876012C47.007 -0.731595 48.6767 -1.72217 50.4751 -1.66125L96.0845 -0.116329C98.6305 -0.0300883 100.624 2.10372 100.538 4.64968C100.452 7.19563 98.3182 9.18962 95.7722 9.10338L91.425 8.95613L110.251 40.6891C113.717 46.5315 111.791 54.0774 105.948 57.5434L71.5685 77.9399C65.7262 81.406 58.1802 79.4796 54.7142 73.6373L35.8881 41.9043L33.9336 45.7901C32.7889 48.0659 30.0161 48.9828 27.7404 47.8382C25.4646 46.6935 24.5477 43.9207 25.6923 41.6449L46.1984 0.876012ZM51.3399 36.3095C50.4733 34.8489 50.9549 32.9624 52.4155 32.0959L60.3494 27.389C61.8099 26.5225 63.6964 27.0041 64.5629 28.4647L69.2698 36.3985C70.1363 37.8591 69.6547 39.7456 68.1942 40.6121L60.2603 45.319C58.7997 46.1855 56.9133 45.7039 56.0467 44.2433L51.3399 36.3095ZM64.1827 51.9305C63.3162 50.47 63.7978 48.5835 65.2584 47.717L70.5476 44.579C72.0082 43.7125 73.8947 44.1941 74.7612 45.6547L77.8991 50.9439C78.7656 52.4045 78.284 54.291 76.8234 55.1575L71.5342 58.2954C70.0736 59.1619 68.1871 58.6803 67.3206 57.2198L64.1827 51.9305ZM70.0988 28.7559C69.2323 27.2953 69.7139 25.4088 71.1745 24.5423L76.4637 21.4044C77.9243 20.5379 79.8108 21.0195 80.6773 22.48L83.8152 27.7693C84.6817 29.2298 84.2001 31.1163 82.7395 31.9828L77.4503 35.1208C75.9897 35.9873 74.1033 35.5057 73.2367 34.0451L70.0988 28.7559ZM78.7281 43.3013C77.8616 41.8407 78.3432 39.9542 79.8038 39.0877L85.093 35.9498C86.5536 35.0832 88.44 35.5648 89.3066 37.0254L92.4445 42.3146C93.311 43.7752 92.8294 45.6617 91.3688 46.5282L86.0796 49.6661C84.619 50.5327 82.7325 50.0511 81.866 48.5905L78.7281 43.3013Z" fill="black" fill-opacity="0.15"/>
</g>
<defs>
<clipPath id="clip0_1_1732">
<rect width="98.4" height="98.4" fill="white" transform="translate(0.944824 16.1514) rotate(-30.6792)"/>
</clipPath>
</defs>
</svg>
