<svg width="105" height="106" viewBox="0 0 105 106" fill="none" xmlns="http://www.w3.org/2000/svg">
<path d="M25.7615 -4.97459L19.3705 -3.17682L51.0126 27.5564L47.2061 28.0467L16.0609 -2.2468L16.0249 -2.23514L19.2464 13.0887L24.0505 17.7582L31.0506 15.4585L29.8164 23.3539L32.1444 25.6147L34.3883 24.5524L38.0665 28.1246L37.5897 30.903L41.7568 34.946L43.0952 34.2961L46.485 38.522L46.2606 39.3237L51.6618 44.573L64.2192 32.3738L25.7615 -4.97459Z" fill="black" fill-opacity="0.15"/>
<path d="M108.642 53.061L84.2286 29.3515C81.1153 26.3319 76.0748 26.3319 72.9655 29.3515L48.5518 53.061C45.4385 56.0768 45.4385 60.9798 48.5518 63.9994L72.9614 87.705C76.0707 90.7286 81.1153 90.7286 84.2286 87.705L108.642 63.9994C111.752 60.9798 111.752 56.0768 108.642 53.061ZM85.7874 74.9105C83.84 76.8017 80.6866 76.8017 78.7433 74.9105C76.8 73.0272 76.8 69.9647 78.7433 68.0736L88.4239 58.6723C90.3712 56.7811 93.5205 56.7811 95.4638 58.6723C97.4111 60.5595 97.4111 63.6259 95.4638 65.5092L85.7874 74.9105Z" fill="black" fill-opacity="0.15"/>
</svg>
