<svg width="135" height="128" viewBox="0 0 135 128" fill="none" xmlns="http://www.w3.org/2000/svg">
<g clip-path="url(#clip0_1_1677)">
<path fill-rule="evenodd" clip-rule="evenodd" d="M47.2383 35.9003C41.526 27.7191 38.6699 23.6285 39.4369 19.3123C40.2039 14.9962 44.2945 12.1401 52.4757 6.42781L69.8306 -5.68972C78.0118 -11.402 82.1024 -14.2581 86.4185 -13.4911C90.7346 -12.7241 93.5908 -8.63352 99.303 -0.452342L129.597 42.935C135.309 51.1161 138.165 55.2067 137.398 59.5229C136.631 63.839 132.541 66.6951 124.359 72.4074L107.005 84.5249C98.8234 90.2372 94.7328 93.0933 90.4167 92.3263C86.1005 91.5593 83.2444 87.4687 77.5321 79.2876L47.2383 35.9003ZM56.3651 16.62C55.5285 15.4219 55.8216 13.7724 57.0197 12.9359L74.3747 0.818373C75.5728 -0.018169 77.2222 0.274944 78.0587 1.47305C78.8953 2.67115 78.6022 4.32056 77.404 5.15711L60.0491 17.2746C58.851 18.1112 57.2016 17.8181 56.3651 16.62ZM109.623 69.7887C112.019 68.1156 112.606 64.8168 110.933 62.4206C109.26 60.0244 105.961 59.4382 103.564 61.1113C101.168 62.7843 100.582 66.0832 102.255 68.4794C103.928 70.8756 107.227 71.4618 109.623 69.7887Z" fill="black" fill-opacity="0.15"/>
</g>
<defs>
<clipPath id="clip0_1_1677">
<rect width="127" height="127" fill="white" transform="matrix(0.819917 -0.572482 -0.572482 -0.819917 72.7053 127.835)"/>
</clipPath>
</defs>
</svg>
